<?xml version="1.0" encoding="utf-8"?>
<!-- Generator: Adobe Illustrator 23.0.2, SVG Export Plug-In . SVG Version: 6.00 Build 0)  -->
<svg version="1.1" id="Слой_1" xmlns="http://www.w3.org/2000/svg" xmlns:xlink="http://www.w3.org/1999/xlink" x="0px" y="0px"
	 viewBox="0 0 334.9 45.5" style="enable-background:new 0 0 334.9 45.5;" xml:space="preserve">
<style type="text/css">
	.st0{fill-rule:evenodd;clip-rule:evenodd;fill:#E41D2D;}
	.st1{fill:#2B2A29;}
	.st2{fill-rule:evenodd;clip-rule:evenodd;fill:#28334C;}
	.st3{fill:#28324B;}
	.st4{fill-rule:evenodd;clip-rule:evenodd;fill:#F15C22;}
	.st5{fill:#28334C;}
	.st6{fill:#F15C22;}
	.st7{fill-rule:evenodd;clip-rule:evenodd;}
</style>
<g>
	<g id="Слой_x0020_1">
		<g id="_121033506912">
			<path class="st0" d="M20.8,44.4C8.1,44.4,1,37,1,30c0-4.3,3.1-8.4,7.9-11.1c-0.5,2.2-0.8,4.6-0.9,7c0,0.2,0,0.4,0,0.5l-3.5,4h3.7
				c0.1,0.4,0.1,0.8,0.2,1.2H3.1l-0.9,1.2l6.5-0.1c1.4,5,4.6,8.4,7.1,9.3c3.6,1.3,8.3,1.3,13.5-8.3l-5.9,0c0,0-2.3,6.9-7.4,6.5
				c0,0-3.9-0.3-5.5-7.4L31,32.6l0.8-1.2l-21.6,0.1v-0.1c0,0,0-0.4-0.1-1.1l22.7-0.2l5.7-6.3l-17.7-0.3l6-6.9
				c10.1,1.9,14.4,8,14.5,13.4C41.7,38.2,32.3,44.4,20.8,44.4z M16.7,16.3L10,24c0.1-1.9,0.3-4,0.7-6.1
				C12.6,17.2,14.6,16.6,16.7,16.3z M42.4,30c-0.2-5.6-4.5-12.2-14.6-14.4l4.2-4.8H21.5L17.8,15c-2.4,0.3-4.7,0.8-6.8,1.7
				c0.2-0.9,0.5-1.8,0.8-2.6c0,0,1.5-4.6,4.2-6.6c2.6-2.1,4-1.3,4.1-1.2c0.2,0.1,1.7,0.5,1.6,3.5L32,9.4c0,0-2.1-7.3-7.2-9.2
				c0,0-4.4-1.5-9,4.1c-3,3.7-5.3,8.2-6.6,13.4C3.6,20.6,0,25.4,0,30.1c0,7.4,7.9,15.4,21.3,15.4C33.3,45.4,42.7,38.6,42.4,30z"/>
			<path class="st1" d="M60,26.4h-2.1c-0.2-0.3-0.5-0.6-0.9-0.8c-0.3-0.2-0.7-0.3-1.2-0.3c-0.3,0-0.7,0.1-1,0.2
				c-0.3,0.1-0.6,0.3-0.8,0.6c-0.3,0.3-0.5,0.6-0.6,0.9c-0.1,0.3-0.2,0.7-0.2,1.1c0,0.8,0.3,1.5,0.8,2s1.1,0.8,1.9,0.8
				c0.4,0,0.8-0.1,1.1-0.2c0.3-0.2,0.6-0.4,0.8-0.7h2.1c-0.4,0.9-0.9,1.5-1.6,2c-0.7,0.4-1.5,0.7-2.4,0.7c-0.6,0-1.3-0.1-1.8-0.4
				c-0.6-0.3-1-0.6-1.5-1.1c-0.4-0.4-0.6-0.9-0.8-1.4c-0.2-0.6-0.3-1.1-0.3-1.7s0.1-1.2,0.3-1.7c0.2-0.5,0.6-1,1-1.5
				c0.4-0.4,0.9-0.7,1.4-0.9s1.1-0.3,1.7-0.3c1,0,1.8,0.2,2.4,0.7C59,24.8,59.6,25.4,60,26.4z M62.7,28.9v3.5H61v-8.7h1.7v3.5h2.8
				v-3.5h1.7v8.7h-1.7v-3.5H62.7z M73.3,32.5h-4.7v-8.7h4.7v1.5h-3v2h3v1.5h-3v2.1h3V32.5z M76.4,32.5h-1.7v-8.7h1.6l3.6,5.5v-5.5
				h1.7v8.7H80l-3.6-5.7V32.5z M91.6,27.9L91.6,27.9v0.2c0,0.4,0,0.7-0.1,1c-0.1,0.3-0.2,0.6-0.3,0.9c-0.4,0.8-1,1.4-1.7,1.9
				c-0.7,0.4-1.5,0.7-2.4,0.7c-0.7,0-1.3-0.1-1.8-0.4c-0.6-0.3-1.1-0.6-1.5-1.1c-0.4-0.4-0.7-0.9-0.8-1.4c-0.2-0.5-0.3-1.1-0.3-1.7
				c0-0.6,0.1-1.2,0.4-1.7c0.2-0.5,0.6-1,1-1.5c0.4-0.4,0.9-0.7,1.4-0.9s1.1-0.3,1.7-0.3c0.9,0,1.7,0.2,2.4,0.7s1.2,1.1,1.6,2h-2.1
				c-0.3-0.3-0.5-0.6-0.9-0.7c-0.3-0.2-0.7-0.2-1.1-0.2c-0.7,0-1.4,0.3-1.9,0.8s-0.8,1.2-0.8,2s0.3,1.4,0.8,2
				c0.5,0.5,1.2,0.8,1.9,0.8c0.5,0,1-0.1,1.4-0.4c0.4-0.3,0.8-0.7,1-1.2h-3.4V28L91.6,27.9L91.6,27.9z M97,32.5h-4.4v-8.7h1.7v7.1
				H97C97,30.9,97,32.5,97,32.5z M99,28c0,0.4,0.1,0.7,0.2,1c0.1,0.3,0.3,0.6,0.5,0.9c0.3,0.3,0.6,0.5,0.9,0.7s0.7,0.2,1,0.2
				c0.8,0,1.4-0.3,1.9-0.8s0.8-1.2,0.8-2c0-0.7-0.3-1.4-0.8-1.9s-1.1-0.8-1.9-0.8s-1.4,0.3-1.9,0.8C99.2,26.7,99,27.3,99,28z
				 M97.2,28.1c0-0.5,0.1-0.9,0.2-1.3c0.1-0.4,0.3-0.8,0.6-1.2c0.4-0.6,1-1.1,1.6-1.4c0.6-0.3,1.4-0.5,2.1-0.5
				c0.6,0,1.1,0.1,1.7,0.3c0.6,0.2,1,0.5,1.4,1c0.4,0.4,0.8,0.9,1,1.5c0.2,0.5,0.3,1.1,0.3,1.7c0,0.6-0.1,1.2-0.3,1.7
				s-0.5,1-0.9,1.4c-0.4,0.4-0.9,0.8-1.5,1c-0.6,0.2-1.1,0.4-1.7,0.4c-0.6,0-1.2-0.1-1.8-0.3c-0.5-0.2-1-0.6-1.4-1
				c-0.4-0.4-0.7-0.9-0.9-1.4C97.3,29.3,97.2,28.7,97.2,28.1z M108.8,32.5h-1.7v-8.7h1.6l3.6,5.5v-5.5h1.7v8.7h-1.6l-3.6-5.7V32.5z
				 M124,27.9L124,27.9c0,0.2,0,0.2,0,0.2c0,0.4,0,0.7-0.1,1s-0.2,0.6-0.3,0.9c-0.4,0.8-1,1.4-1.7,1.9c-0.7,0.4-1.5,0.7-2.4,0.7
				c-0.7,0-1.3-0.1-1.8-0.4c-0.6-0.3-1.1-0.6-1.5-1.1c-0.4-0.4-0.7-0.9-0.8-1.4c-0.2-0.5-0.3-1.1-0.3-1.7c0-0.6,0.1-1.2,0.4-1.7
				c0.2-0.5,0.6-1,1-1.5c0.4-0.4,0.9-0.7,1.4-0.9s1.1-0.3,1.7-0.3c0.9,0,1.7,0.2,2.4,0.7s1.2,1.1,1.6,2h-2.1
				c-0.3-0.3-0.5-0.6-0.9-0.7c-0.3-0.2-0.7-0.2-1.1-0.2c-0.7,0-1.4,0.3-1.9,0.8s-0.8,1.2-0.8,2s0.3,1.4,0.8,2
				c0.5,0.5,1.2,0.8,1.9,0.8c0.5,0,1-0.1,1.4-0.4c0.4-0.3,0.7-0.7,1-1.2h-3.4V28L124,27.9L124,27.9z M130.3,32.5h-1.7v-8.7h2.2
				l2.2,6.3l2.2-6.3h2.2v8.7h-1.7l0.1-6.3l-2.2,6.3h-1.3l-2.2-6.3L130.3,32.5z M140.3,28c0,0.4,0.1,0.7,0.2,1
				c0.1,0.3,0.3,0.6,0.5,0.9c0.3,0.3,0.6,0.5,0.9,0.7c0.3,0.2,0.7,0.2,1,0.2c0.8,0,1.4-0.3,1.9-0.8s0.8-1.2,0.8-2
				c0-0.7-0.3-1.4-0.8-1.9s-1.1-0.8-1.9-0.8c-0.8,0-1.4,0.3-1.9,0.8C140.6,26.7,140.3,27.3,140.3,28z M138.5,28.1
				c0-0.5,0.1-0.9,0.2-1.3c0.1-0.4,0.3-0.8,0.6-1.2c0.4-0.6,1-1.1,1.6-1.4c0.6-0.3,1.4-0.5,2.1-0.5c0.6,0,1.1,0.1,1.7,0.3
				s1,0.5,1.4,1c0.4,0.4,0.8,0.9,1,1.5c0.2,0.5,0.3,1.1,0.3,1.7c0,0.6-0.1,1.2-0.3,1.7s-0.5,1-0.9,1.4s-0.9,0.8-1.5,1
				s-1.1,0.4-1.7,0.4c-0.6,0-1.2-0.1-1.8-0.3c-0.5-0.2-1-0.6-1.4-1s-0.7-0.9-0.9-1.4C138.7,29.3,138.5,28.7,138.5,28.1z M152.8,23.8
				v1.5h-1.6v7.1h-1.7v-7.1h-1.6v-1.5H152.8z M155,28c0,0.4,0.1,0.7,0.2,1c0.1,0.3,0.3,0.6,0.5,0.9c0.3,0.3,0.6,0.5,0.9,0.7
				c0.3,0.2,0.7,0.2,1,0.2c0.8,0,1.4-0.3,1.9-0.8s0.8-1.2,0.8-2c0-0.7-0.3-1.4-0.8-1.9s-1.1-0.8-1.9-0.8c-0.8,0-1.4,0.3-1.9,0.8
				C155.3,26.7,155,27.3,155,28z M153.2,28.1c0-0.5,0.1-0.9,0.2-1.3c0.1-0.4,0.3-0.8,0.6-1.2c0.4-0.6,1-1.1,1.6-1.4
				c0.6-0.3,1.4-0.5,2.1-0.5c0.6,0,1.1,0.1,1.7,0.3c0.5,0.2,1,0.5,1.4,1c0.4,0.4,0.8,0.9,1,1.5c0.2,0.5,0.3,1.1,0.3,1.7
				c0,0.6-0.1,1.2-0.3,1.7s-0.5,1-0.9,1.4s-0.9,0.8-1.5,1s-1.1,0.4-1.7,0.4c-0.6,0-1.2-0.1-1.8-0.3c-0.5-0.2-1-0.6-1.4-1
				s-0.7-0.9-0.9-1.4C153.4,29.3,153.2,28.7,153.2,28.1z M164.9,28h0.4c0.7,0,1.2-0.1,1.6-0.4c0.4-0.2,0.5-0.6,0.5-1.1
				s-0.1-0.8-0.4-1c-0.3-0.2-0.8-0.3-1.4-0.3H165V28H164.9z M164.9,32.5h-1.7v-8.7h2.1c0.7,0,1.1,0,1.5,0.1c0.3,0,0.6,0.1,0.8,0.2
				c0.5,0.2,0.9,0.5,1.1,1c0.3,0.4,0.4,0.9,0.4,1.5c0,0.7-0.2,1.2-0.6,1.7c-0.4,0.5-0.9,0.8-1.5,0.9l2.2,3.4h-2l-2.2-4v3.9H164.9z"
				/>
		</g>
	</g>
	<g>
		<g>
			<path class="st2" d="M313.2,18.9l5.2,13.6V18.9h5.6V26c1.9-0.1,2-2.8,3.2-4.9c1.4-2.5,3.6-1.9,5.8-2.2h1.4v3.9
				c-1.4,0.2-2.5-0.1-3.5,2.1c-0.5,1.1-0.6,1.9-1.6,2.6c-0.3,0.2-0.6,0.3-0.9,0.5c0.9,0.5,1.7,0.8,2.3,1.6c1.4,1.9,1.9,3.1,2.9,5.1
				c0.3,0.6,1.2,2.3,1.3,2.7h-6.4l-1.9-4c-0.3-0.7-0.6-1.3-1-2s-0.7-1.3-1.8-1.2v7.3h-9.9l-0.9-3h-6.4c-0.4,0.7-0.6,2.5-1,3h-5.7
				c0.1-0.8,2.8-7.3,2.9-8c-2.5,1.7-5.2,0.9-7.7,1.2v6.8h-5.7V23.6h-5.5c-0.4,0-0.1,0-0.3,0.1v13c0,0.1,0,0.3,0,0.4
				c0,0.4,0,0.2-0.1,0.3v-14h5.8V19c1.7,0,3.4,0,5.1,0c2.8,0,7-0.4,8.9,1.3c0.8,0.7,1.6,1.8,1.7,3.4c0.3-0.3,1.2-3,1.4-3.5l0.3-0.8
				c0.1-0.3,0-0.2,0.2-0.3L313.2,18.9z M295.2,26.7c0.6,0.1,2.4,0,3-0.2c1.9-0.6,1.8-3.2,0-3.7c-0.6-0.2-2.3-0.2-3-0.2V26.7z
				 M308,30.3h0.7h0.2h2h0.5h0.6c0-0.4-1.9-6.3-2-6.5L308,30.3z"/>
			<path class="st3" d="M277.7,23.5h0.4v13.8h5.6v-14h5.8v-4.4h-17.1v4.6c0.6-0.1,2.1,0,2.8,0C275.9,23.5,276.8,23.5,277.7,23.5z"/>
			<path class="st4" d="M241.5,27c0.8-0.2,3.2,0,4.2,0c1.2,0,2.9-0.1,4,0.2c1,0.3,1.8,1.1,1.7,2.5c-0.1,1.5-1.5,1.8-2.1,2.1
				c0.2,0.1,0.6,0.1,0.9,0.2c0.8,0.3,1.5,1,1.6,1.9c0.5,3.7-3.3,3.5-5.8,3.5c-1.5,0-3.1,0.1-4.6,0L241.5,27z M245.4,30.9
				c0.9,0,1.9,0.2,2-0.8c0-1-1.1-0.9-2-0.8V30.9z M245.4,34.8c1.1,0.1,2.4,0.2,2.4-0.9c0-1.1-1.4-0.9-2.4-0.9V34.8z"/>
			<path class="st4" d="M236.1,36.2c-0.6,0.4-1.1,0.9-1.9,1.1c-2.4,0.7-5.8,0.3-5.9-2.6c0-2,1.2-2.7,2.9-3.1
				c1.2-0.3,3.6-0.7,4.6-1.2c0.1-1.1-0.6-1.3-1.6-1.3c-1.1,0-1.4,0.3-1.8,1.2l-3.8-0.4c-0.1-0.7,0.7-1.7,1-2.1
				c0.5-0.5,1.3-0.8,2.2-1c1.5-0.3,4.5-0.2,5.8,0.3c1.7,0.7,2.1,2.2,2.1,4.3c0,1.1,0,2.1,0,3.2c0,2.4,0.3,1.7,0.5,2.7h-3.8
				c0-0.2,0-0.1,0-0.1L236.1,36.2z M233.5,33.1c-0.3,0.1-0.8,0.3-1,0.6c-0.3,0.4-0.2,1,0.2,1.3c0.6,0.6,1.7,0.3,2.4-0.2
				s0.9-1.3,0.8-2.4C235.7,32.5,233.8,33,233.5,33.1z"/>
			<path class="st5" d="M235.4,23.5h19.7V19h-19.7V23.5z"/>
			<path class="st4" d="M263,31c0.4-1.6,1.3-3,2.8-3.7c0.9-0.4,1.8-0.6,2.9-0.6c1.8,0,1.8,0.3,3,0.5c0.1,0.1,0.7,0.4,1,0.7
				c1.9,1.5,2.5,4.2,1.6,6.5c-0.6,1.3-1.2,1.6-1.5,2.1c-0.4,0-0.7,0.8-3.1,1.1c-1.3,0.2-2.8,0-3.8-0.5c-1.6-0.7-2.6-2.1-2.9-3.6
				c-0.1-0.6,0-1.6-0.1-2.1L263,31z M269.5,34.8c1.2-0.3,1.5-1.9,1.4-3.2c-0.3-3.1-4.3-2.9-3.9,1.2C267.1,34,267.9,35.2,269.5,34.8z
				"/>
			<path class="st6" d="M252.5,29.8c0.7,0,2.4-0.1,2.9,0.1v7.4h4v-7.5h2.9V27h-9.7L252.5,29.8z"/>
			<path class="st5" d="M228.3,23.5h4.1c0-0.6,0.1-4.1,0-4.6h-4.1V23.5z"/>
			<path class="st5" d="M258.1,23.5h4.1v-4.6h-4.1V23.5z"/>
			<path class="st5" d="M265.2,23.5h4.1V19h-4.1V23.5z"/>
		</g>
		<path class="st2" d="M203,19l2.6-0.1l0.1-5.4c1.5-1.3,6.7-2.3,9.1-2.3c2.9,0,7.4,0.9,9.2,2.3v5.4h2.7v5l-2.7,1.5v13.9h-5.3v-2.5
			h-7.6c0,1.1,0,1.5-0.1,2.5h-5.3V25.2c-0.9-0.3-1.9-0.9-2.6-1.4L203,19z M207.2,32.6l2.6,1l0.2,0.8l-0.2,0.3l-2.5-0.4v3.4h2.5v-2.4
			h10.1v2.5h2.6v-3.4l-2.6,0.4l-0.2-0.3l0.2-0.8l2.6-1.1v-6.4c-0.8,0.1-0.8,0.1-1,0.8l-1.2,4.6c-0.4,1.5-0.2,1.4-1.9,1.8
			c-2.5,0.5-4.3,0.5-6.7,0c-1.6-0.4-1.4-0.2-1.9-1.8c-0.3-1-1.4-5.4-2.3-5.4L207.2,32.6z M207.2,24.4c5.1,2.3,10,1.9,15.1,0.1v-3.9
			h-15.2L207.2,24.4z M224,23.6l1-0.4l0.1-2.6H224V23.6z M204.6,23.1l1,0.4v-3h-1.1L204.6,23.1z M207.2,18.9h15.1v-4.4
			c-1.5-0.9-5.4-1.7-7.5-1.7c-2.5,0-5.7,0.7-7.6,1.7V18.9z M219.7,27c-1.8,0.2-2.8,0.5-4.8,0.5c-2.1,0-3.1-0.3-5-0.6l1.3,4.7
			c2.3,0.8,4.9,0.6,7.2,0L219.7,27z"/>
	</g>
	<rect x="184.6" class="st7" width="0.7" height="49.5"/>
</g>
</svg>
