<?xml version="1.0" encoding="utf-8"?>
<!-- Generator: Adobe Illustrator 23.0.2, SVG Export Plug-In . SVG Version: 6.00 Build 0)  -->
<svg version="1.1" id="Слой_1" xmlns="http://www.w3.org/2000/svg" xmlns:xlink="http://www.w3.org/1999/xlink" x="0px" y="0px"
	 viewBox="0 0 34 34" style="enable-background:new 0 0 34 34;" xml:space="preserve">
<style type="text/css">
	.st0{fill:#B2B2B2;}
</style>
<g>
	<g>
		<path class="st0" d="M17,33c-8.9,0-16-7.2-16-16C1.1,8.1,8.2,1,17.1,1C25.9,1,33,8.2,33,17C33,25.9,25.9,33,17,33z M19.9,14.3
			c0.1,0.1,0.1,0.2,0.2,0.3c-0.3,0.4-0.7,0.8-1,1.1c-1.3,1.3-2.6,2.5-4,3.8c-0.6,0.6-0.9,1.2-0.1,1.8c1.7,1.2,3.4,2.4,5.2,3.5
			c1.3,0.8,2,0.4,2.4-1.1c0.3-1.4,0.5-2.8,0.8-4.2c0.4-2.5,0.8-5,1.1-7.5c0.2-1.2-0.4-1.6-1.5-1.3c-0.3,0.1-0.5,0.2-0.8,0.3
			c-3.9,1.6-7.9,3.3-11.8,4.9c-0.9,0.4-1.7,0.7-2.5,1.1c-0.3,0.2-0.5,0.6-0.8,0.9c0.3,0.3,0.6,0.6,0.9,0.7c0.6,0.3,1.3,0.4,2,0.6
			c1.3,0.4,2.4,0.2,3.5-0.6c1.8-1.3,3.7-2.5,5.6-3.8C19.3,14.6,19.6,14.4,19.9,14.3z"/>
	</g>
</g>
</svg>
