<?xml version="1.0" encoding="utf-8"?>
<!-- Generator: Adobe Illustrator 23.0.2, SVG Export Plug-In . SVG Version: 6.00 Build 0)  -->
<svg version="1.1" id="Слой_1" xmlns="http://www.w3.org/2000/svg" xmlns:xlink="http://www.w3.org/1999/xlink" x="0px" y="0px"
	 viewBox="0 0 70 70" style="enable-background:new 0 0 70 70;" xml:space="preserve">
<style type="text/css">
	.st0{fill:#FFFFFF;}
	.st1{fill:#E60120;}
</style>
<g>
	<circle class="st0" cx="35" cy="35" r="33.9"/>
	<g>
		<path class="st1" d="M35,0.5C54,0.5,69.5,15.9,69.5,35C69.5,54.1,54,69.5,35,69.5C15.9,69.5,0.5,54,0.5,34.9
			C0.5,15.9,16,0.5,35,0.5z M35,65.2c16.7,0,30.2-13.5,30.2-30.2C65.2,18.3,51.7,4.8,35,4.8C18.3,4.8,4.8,18.3,4.8,35
			C4.7,51.7,18.3,65.2,35,65.2z"/>
		<path class="st1" d="M35,29.3c-0.1,0.2-0.2,0.3-0.3,0.4c-5,5-10,10-15,15c-0.7,0.7-1.6,0.9-2.4,0.6c-1.3-0.5-1.8-2.2-0.8-3.4
			c0.1-0.1,0.2-0.2,0.3-0.3c5.4-5.4,10.8-10.8,16.2-16.2c0.3-0.3,0.7-0.6,1.1-0.9c0.7-0.4,1.3-0.4,2,0c0.3,0.2,0.5,0.4,0.7,0.6
			c5.5,5.5,11.1,11.1,16.6,16.6c0.6,0.6,0.8,1.3,0.6,2.1c-0.2,0.8-0.8,1.3-1.6,1.5c-0.7,0.2-1.3,0-1.9-0.4c-0.1-0.1-0.2-0.2-0.3-0.3
			c-5-5-9.9-9.9-14.9-14.9C35.2,29.6,35.1,29.5,35,29.3z"/>
	</g>
</g>
</svg>
