<?xml version="1.0" encoding="utf-8"?>
<!-- Generator: Adobe Illustrator 23.0.2, SVG Export Plug-In . SVG Version: 6.00 Build 0)  -->
<svg version="1.1" id="Слой_1" xmlns="http://www.w3.org/2000/svg" xmlns:xlink="http://www.w3.org/1999/xlink" x="0px" y="0px"
	 viewBox="0 0 34 34" style="enable-background:new 0 0 34 34;" xml:space="preserve">
<style type="text/css">
	.st0{fill:#B2B2B2;}
</style>
<path class="st0" d="M17,33c-8.9,0-16-7.2-16-16C1.1,8.1,8.2,1,17.1,1C25.9,1,33,8.2,33,17C33,25.9,25.9,33,17,33z M18.3,22.9
	c0-1.3,0-2.7,0-4.1c2.2,0.5,3.7,1.6,4.6,3.5c0.1,0.3,0.4,0.7,0.7,0.7c1,0.1,2,0,3.1,0c-0.8-2.8-2.4-4.7-4.8-6.2
	c2.2-1.5,3.6-3.4,4.1-6.1c-0.6,0-1.1,0-1.5,0c-1.1-0.1-1.9,0.1-2.2,1.3c-0.1,0.5-0.5,1-0.8,1.4c-0.8,1-1.7,1.8-3.2,2
	c0-1.6,0-3.2,0-4.7c-1.1,0-2.1,0-3.3,0c0,2.8,0,5.5,0,8.3c-2-0.8-3-2.2-3.6-3.9c-0.4-1.2-0.5-2.5-0.7-3.7c-0.1-0.3-0.4-0.7-0.6-0.7
	c-0.9-0.1-1.8,0-2.7,0C6.7,17.8,12.8,24.5,18.3,22.9z"/>
</svg>
